<?xml version="1.0" encoding="utf-8"?>
<!-- Generator: Adobe Illustrator 25.2.0, SVG Export Plug-In . SVG Version: 6.00 Build 0)  -->
<svg version="1.1" id="Layer_1" xmlns="http://www.w3.org/2000/svg" xmlns:xlink="http://www.w3.org/1999/xlink" x="0px" y="0px"
	 viewBox="0 0 410 113" style="enable-background:new 0 0 410 113;" xml:space="preserve">
<style type="text/css">
	.st0{filter:url(#Adobe_OpacityMaskFilter);}
	.st1{fill-rule:evenodd;clip-rule:evenodd;fill:#FFFFFF;}
	.st2{mask:url(#mask-2_1_);fill-rule:evenodd;clip-rule:evenodd;fill:#FFFFFF;}
	.st3{filter:url(#Adobe_OpacityMaskFilter_1_);}
	.st4{mask:url(#mask-4_1_);fill-rule:evenodd;clip-rule:evenodd;fill:#FFFFFF;}
</style>
<g id="New-web-2021">
	<g id="Group-17-Copy">
		<g id="Group-3" transform="translate(0.000000, 74.000000)">
			<defs>
				<filter id="Adobe_OpacityMaskFilter" filterUnits="userSpaceOnUse" x="0" y="0.19" width="99.74" height="38.08">
					<feColorMatrix  type="matrix" values="1 0 0 0 0  0 1 0 0 0  0 0 1 0 0  0 0 0 1 0"/>
				</filter>
			</defs>
			<mask maskUnits="userSpaceOnUse" x="0" y="0.19" width="99.74" height="38.08" id="mask-2_1_">
				<g class="st0">
					<polygon id="path-1_1_" class="st1" points="0,0.19 99.74,0.19 99.74,38.27 0,38.27 					"/>
				</g>
			</mask>
			<path id="Fill-1" class="st2" d="M49.77,19.57c-3.51,0-6.78-0.74-9.45-2.13L11.62,2.43L3.02,7.6c-4.09,2.46-4.02,6.22,0.16,8.41
				l39.7,20.76c1.93,1.01,4.39,1.5,6.89,1.5c2.92,0,5.88-0.68,8.08-2l38.87-23.36c4.09-2.46,4.02-6.22-0.16-8.41L88.3,0.19
				l-27.61,16.6C57.7,18.58,53.82,19.57,49.77,19.57"/>
		</g>
		<path id="Fill-4" class="st1" d="M96.81,53.66L89.92,50l-16.05,9.79l-2.76,1.68l-2.75,1.68l-7.51,4.58
			c-3,1.83-6.88,2.83-10.95,2.83c-3.52,0-6.8-0.75-9.47-2.17l-8.61-4.57l-2.85-1.51l-2.85-1.51l-15.86-8.42L3.03,56.8
			c-4.1,2.5-4.03,6.33,0.16,8.55l8.28,4.39l2.85,1.51l2.85,1.51l25.83,13.7C44.93,87.5,47.4,88,49.9,88c2.92,0,5.89-0.69,8.1-2.03
			l24.84-15.14l2.76-1.68l2.75-1.68l8.62-5.26C101.07,59.71,101,55.88,96.81,53.66"/>
		<path id="Fill-6" class="st1" d="M96.81,31.25L57.01,10.5C55.07,9.49,52.6,9,50.1,9c-2.92,0-5.89,0.67-8.1,2L3.03,34.35
			c-4.1,2.46-4.03,6.22,0.16,8.4l6.89,3.59l2.85,1.49l2.85,1.49l15.86,8.27l2.85,1.48l2.85,1.49l5.66,2.95
			c1.93,1.01,4.4,1.5,6.91,1.5c2.92,0,5.89-0.67,8.1-2l4.66-2.79l2.76-1.65l2.75-1.65l16.05-9.62l2.76-1.65l2.75-1.65l7.24-4.34
			C101.07,37.2,101,33.44,96.81,31.25"/>
		<g id="Group-10" transform="translate(128.000000, 0.000000)">
			<defs>
				<filter id="Adobe_OpacityMaskFilter_1_" filterUnits="userSpaceOnUse" x="0.69" y="0.78" width="56.93" height="107.91">
					<feColorMatrix  type="matrix" values="1 0 0 0 0  0 1 0 0 0  0 0 1 0 0  0 0 0 1 0"/>
				</filter>
			</defs>
			<mask maskUnits="userSpaceOnUse" x="0.69" y="0.78" width="56.93" height="107.91" id="mask-4_1_">
				<g class="st3">
					<polygon id="path-3_1_" class="st1" points="0.69,0.78 57.63,0.78 57.63,108.69 0.69,108.69 					"/>
				</g>
			</mask>
			<path id="Fill-8" class="st4" d="M42.17,17.49c-5.23-0.21-9.63,3.82-9.84,9c0,0.02,0,0.03,0,0.05v9.05h21.09v15.32H32.32v57.78
				H13.34V50.91H0.69V35.59h12.65V25.14C13.34,10.52,26,0.78,40.05,0.78c6.44-0.14,12.7,2.1,17.57,6.27L50.6,20.28
				C48.07,18.66,45.17,17.7,42.17,17.49"/>
		</g>
		<path id="Fill-11" class="st1" d="M260,35v73.3h-14.55l-2.78-8.37h-2.07c-2.77,3.49-9.01,9.08-21.49,9.08
			C199.71,109,190,95.04,190,74.79V35h20.11v34.9c0,9.08,0.69,21.64,13.17,21.64c6.24,0,16.64-3.49,16.64-22.34V35H260z"/>
		<path id="Fill-13" class="st1" d="M301.2,49.72c-6.32,0-9.13,2.8-9.13,6.31c0,4.91,6.32,6.31,11.24,7.71
			c13.35,2.8,26.69,7.01,26.69,22.43c0,15.42-12.64,23.83-28.1,23.83c-16.86,0-30.2-10.51-30.9-25.94h18.26
			c0.69,6.33,6.28,10.98,12.64,10.51c7.73,0,9.13-4.2,9.13-7.01c0-5.61-4.92-7.01-10.54-8.41c-8.43-2.09-27.39-5.61-27.39-22.43
			c0-14.72,14.05-21.73,28.1-21.73c16.86,0,27.39,9.81,28.09,22.43h-18.26C311.04,53.92,308.94,49.72,301.2,49.72"/>
		<path id="Fill-15" class="st1" d="M409.73,77.06h-53.61c2.08,11.11,11.14,15.28,19.49,15.28c5.38,0.26,10.56-2.06,13.93-6.25h18.8
			c-5.15,13.93-18.54,23.11-33.42,22.91c-20.45-0.06-36.98-16.64-36.92-37.03c0-0.39,0.01-0.77,0.02-1.16
			c-0.68-19.64,14.73-36.11,34.42-36.79c0.59-0.02,1.19-0.02,1.78-0.02C393.03,34,412.52,47.2,409.73,77.06 M357.52,62.47h32.72
			c-1.46-7.18-7.98-12.21-15.32-11.8C367.09,50.16,359.92,55.02,357.52,62.47"/>
	</g>
</g>
</svg>
