<?xml version="1.0" encoding="utf-8"?>
<!-- Generator: Adobe Illustrator 25.2.0, SVG Export Plug-In . SVG Version: 6.00 Build 0)  -->
<svg version="1.1" id="Layer_1" xmlns="http://www.w3.org/2000/svg" xmlns:xlink="http://www.w3.org/1999/xlink" x="0px" y="0px"
	 viewBox="0 0 97.93 89.8" style="enable-background:new 0 0 97.93 89.8;" xml:space="preserve">
<style type="text/css">
	.st0{fill:#FFFFFF;}
</style>
<g>
	<path class="st0" d="M93.13,52.2l-3.78-1.98l4.11-2.48c2.92-1.76,4.55-4.36,4.47-7.13c-0.08-2.74-1.83-5.21-4.8-6.76l-4.21-2.21
		l4.37-2.64c3.85-2.32,3.78-5.88-0.15-7.95L55.79,1.42c-3.93-2.06-10.24-1.85-14.08,0.47L5.15,23.97c-3.85,2.32-3.78,5.88,0.15,7.95
		l3.86,2.03l-4.69,2.83C1.55,38.54-0.08,41.14,0,43.9c0.08,2.74,1.83,5.21,4.8,6.76l3.78,1.98l-4.11,2.48
		C1.55,56.89-0.08,59.49,0,62.26c0.08,2.74,1.83,5.21,4.8,6.76l36.15,18.99c2.22,1.17,4.96,1.78,7.93,1.78c3.43,0,6.7-0.83,9.2-2.34
		l35.39-21.37c2.92-1.76,4.55-4.36,4.47-7.13C97.84,56.22,96.09,53.75,93.13,52.2z M42.6,84.86L6.46,65.87
		c-3.8-2-3.87-5.44-0.14-7.69l5.95-3.59l28.68,15.07c2.22,1.17,4.96,1.78,7.93,1.78c3.43,0,6.7-0.83,9.2-2.34l27.72-16.74l5.68,2.99
		c3.8,2,3.87,5.44,0.14,7.69L56.23,84.41c-2,1.21-4.7,1.83-7.36,1.83C46.6,86.23,44.36,85.78,42.6,84.86z M6.31,39.82l6.54-3.95
		l12.57,6.6l1.84,0.97l1.84,0.97l13.55,7.12c3.93,2.06,10.24,1.85,14.08-0.47l12.37-7.47l1.78-1.08l1.78-1.08l12.69-7.66l6.12,3.21
		c3.8,2,3.87,5.44,0.14,7.69l-5.95,3.59l-1.78,1.08l-1.78,1.08L56.23,66.05c-2,1.21-4.7,1.83-7.36,1.83c-2.27,0-4.52-0.45-6.27-1.38
		L15.82,52.43l-1.84-0.97l-1.84-0.97l-5.68-2.99C2.65,45.52,2.59,42.07,6.31,39.82z M62.38,17.21c0.38,0,0.71,0.07,0.99,0.22
		c0.3,0.16,0.46,0.34,0.47,0.55c0,0.13-0.07,0.26-0.19,0.38c-0.07,0.07-0.15,0.14-0.26,0.2l-1.48,0.89l-0.06,0.04
		c0.87,0.53,1.54,1.07,2.01,1.62c0.53,0.62,0.84,1.25,0.96,1.89c0.02,0.11,0.05,0.22,0.06,0.33c0.05,0.75-0.09,1.52-0.44,2.3
		c-0.18,0.43-0.5,0.76-0.94,0.98c-0.44,0.21-0.96,0.29-1.57,0.24c-0.4-0.03-0.74-0.11-1.01-0.25c-0.15-0.08-0.27-0.17-0.38-0.28
		c-0.3-0.31-0.36-0.65-0.2-1.03c0.42-0.79,0.49-1.58,0.2-2.34c-0.21-0.57-0.74-1.14-1.58-1.71l-8.05,4.86
		c1.86,1.3,2.88,2.64,3.07,4.02c0.08,0.64-0.05,1.25-0.38,1.84c-0.3,0.53-0.76,1.05-1.39,1.55c-0.31,0.25-0.65,0.49-1.05,0.73
		c-0.49,0.3-1.01,0.55-1.54,0.78c-0.73,0.31-1.49,0.56-2.29,0.72c-1.36,0.29-2.73,0.39-4.12,0.32c-0.02,0-0.04,0-0.06,0
		c-1.02-0.06-2.01-0.21-2.98-0.41c-0.37-0.08-0.74-0.14-1.1-0.23c-0.45-0.12-0.88-0.25-1.29-0.4c-0.35-0.12-0.69-0.24-1.01-0.38
		l-2.02,1.22c-0.28,0.17-0.6,0.26-0.98,0.28c-0.38,0.02-0.72-0.05-1.02-0.21c-0.28-0.15-0.43-0.33-0.44-0.55
		c0-0.22,0.14-0.41,0.41-0.58l1.98-1.19c-1.02-0.6-1.88-1.25-2.57-1.94c-0.87-0.87-1.41-1.76-1.62-2.67
		c-0.21-0.91-0.04-1.77,0.53-2.58c0.25-0.38,0.67-0.62,1.25-0.74c0.58-0.12,1.18-0.07,1.82,0.14c0.13,0.04,0.26,0.09,0.36,0.15
		c0.26,0.13,0.44,0.31,0.54,0.53c0.15,0.31,0.11,0.63-0.1,0.95c-0.42,0.67-0.3,1.46,0.36,2.36c0.53,0.73,1.31,1.41,2.35,2.04
		l8.75-5.28c-1.17-0.85-2.02-1.71-2.54-2.59c-0.6-1.03-0.74-2.02-0.41-2.97c0.33-0.95,1.12-1.81,2.39-2.57
		c1.37-0.83,2.93-1.33,4.68-1.51c0.34-0.04,0.69-0.05,1.04-0.07c1.42-0.06,2.86,0.05,4.33,0.34c1.39,0.28,2.72,0.7,3.97,1.25
		l0.07-0.04l1.48-0.89c0.11-0.07,0.23-0.11,0.35-0.15C61.93,17.26,62.14,17.21,62.38,17.21z"/>
	<path class="st0" d="M49.02,20.14c-0.64,0.39-1.11,0.83-1.41,1.34c-0.29,0.51-0.25,1.12,0.13,1.83c0.25,0.47,0.73,0.98,1.42,1.54
		l7.79-4.71c-1.17-0.5-2.38-0.81-3.63-0.92C51.7,19.08,50.26,19.39,49.02,20.14z"/>
	<path class="st0" d="M48.09,27.8l-8.37,5.06c0.37,0.14,0.77,0.25,1.17,0.35c0.19,0.05,0.38,0.1,0.57,0.14
		c1.12,0.23,2.23,0.29,3.35,0.18c1.11-0.11,2.1-0.42,2.98-0.95c0.57-0.34,0.99-0.73,1.28-1.15c0.27-0.4,0.42-0.84,0.43-1.31
		C49.51,29.39,49.05,28.62,48.09,27.8z"/>
</g>
</svg>
