<svg width="135" height="113" viewBox="0 0 135 113" fill="none" xmlns="http://www.w3.org/2000/svg">
<g clip-path="url(#clip0)">
<path d="M66.2097 88.9427C64.1504 88.9814 62.1114 88.4802 60.2608 87.4786L29.9796 69.8396C27.9552 68.6616 26.8118 66.9332 26.7587 64.9744C26.7042 62.9914 27.7778 61.1615 29.7804 59.8215L59.4241 39.9771C61.5379 38.6581 63.9316 37.9901 66.3565 38.0425C68.4166 38.0038 70.4555 38.505 72.3069 39.5065L102.587 57.1456C104.612 58.3252 105.756 60.0528 105.809 62.0108C105.862 63.9946 104.789 65.8237 102.787 67.1645L73.1429 87.0081C71.0298 88.3271 68.6354 88.9951 66.2104 88.9427H66.2097Z" fill="#38D989"/>
<path d="M66.6606 36.9281C63.962 36.8773 61.2997 37.6281 58.9509 39.1038L29.287 58.9626C26.8386 60.602 25.474 63.0164 25.5431 65.5865C25.6143 68.1348 27.0771 70.4242 29.5656 71.8725L59.8667 89.5225C61.9303 90.6587 64.2107 91.2273 66.5144 91.1805C69.2138 91.2313 71.8753 90.4797 74.2234 89.0048L103.888 69.146C106.336 67.5066 107.702 65.0922 107.633 62.5221C107.561 59.973 106.099 57.6844 103.609 56.2353L73.309 38.5869C71.2447 37.4482 68.9635 36.8781 66.6584 36.9233L66.6606 36.9281ZM66.6584 40.2352C68.4784 40.1949 70.2809 40.6336 71.9182 41.5134L102.222 59.1626C105.41 61.019 105.464 64.2204 102.343 66.3098L72.6791 86.1686C70.7944 87.3258 68.6675 87.9121 66.5129 87.8677C64.6937 87.9089 62.8912 87.4726 61.2539 86.5936L30.952 68.942C27.7645 67.0856 27.7107 63.885 30.8305 61.7955L60.4945 41.9376C62.3792 40.7795 64.5068 40.1941 66.6606 40.2376" fill="white"/>
<path d="M67.4259 74.9577C65.3659 74.9964 63.3269 74.4936 61.4762 73.4897L31.1958 55.8567C29.1707 54.6763 28.0273 52.9488 27.9749 50.9884C27.9212 49.0055 28.9948 47.1757 30.9974 45.8349L60.6403 25.9918C62.7549 24.6736 65.1478 24.0057 67.5727 24.0572C69.6335 24.0178 71.6725 24.5214 73.5239 25.5253L103.804 43.1582C105.828 44.3386 106.972 46.067 107.025 48.0265C107.078 50.0095 106.005 51.8393 104.002 53.1793L74.3591 73.0231C72.2452 74.3405 69.8516 75.0085 67.4266 74.9577H67.4259Z" fill="#38D989"/>
<path d="M66.6606 22.9384C63.962 22.8881 61.2997 23.6312 58.9509 25.0919L29.287 44.7479C26.8386 46.3698 25.474 48.7595 25.5431 51.3041C25.6143 53.8264 27.0771 56.0924 29.5656 57.5259L59.8667 74.9957C61.9303 76.1195 64.2107 76.6823 66.5144 76.636C69.2138 76.687 71.8753 75.9431 74.2234 74.4825L103.888 54.8273C106.336 53.2038 107.702 50.8148 107.633 48.271C107.561 45.748 106.099 43.4827 103.609 42.0484L73.309 24.5794C71.2447 23.454 68.965 22.8913 66.6606 22.9384ZM66.6584 26.2141C68.4784 26.175 70.2801 26.6084 71.9182 27.4792L102.222 44.945C105.41 46.7832 105.464 49.9512 102.343 52.0201L72.6769 71.6777C70.7922 72.8238 68.6653 73.4049 66.5108 73.3602C64.6915 73.3993 62.8891 72.9659 61.2517 72.0951L30.952 54.6253C27.7645 52.7879 27.7107 49.6191 30.8305 47.5511L60.4945 27.8967C62.3792 26.7497 64.5061 26.1694 66.6606 26.2141" fill="white"/>
<path d="M66.6606 7.83448C63.962 7.78368 61.2997 8.53452 58.9509 10.0104L29.287 29.8712C26.8386 31.5099 25.474 33.9246 25.5431 36.4957C25.6143 39.0442 27.0771 41.3339 29.5656 42.7823L59.8667 60.4341C61.9303 61.5696 64.2107 62.1382 66.5144 62.0914C69.2138 62.143 71.8753 61.3914 74.2234 59.9155L103.888 40.0556C106.336 38.4152 107.702 36.0013 107.633 33.431C107.561 30.8817 106.099 28.5929 103.609 27.1436L73.309 9.49264C71.2447 8.35548 68.965 7.7869 66.6606 7.83448ZM66.6584 11.1443C68.4784 11.1048 70.2801 11.5427 71.9182 12.4226L102.222 30.0704C105.41 31.9277 105.464 35.1287 102.343 37.2191L72.6769 57.0815C70.7922 58.2396 68.6653 58.8267 66.5108 58.7816C64.6915 58.8211 62.8891 58.3832 61.2517 57.5033L30.952 39.8515C27.7645 37.995 27.7107 34.7932 30.8305 32.7036L60.4945 12.8444C62.3792 11.6855 64.5061 11.0992 66.6606 11.1443" fill="white"/>
<path d="M102.55 30.7937L102.554 30.7963C103.937 31.6035 104.422 32.5612 104.435 33.3406C104.448 34.1299 103.986 35.1434 102.613 36.0646L72.1695 56.5031C70.7946 57.4261 68.9112 57.9665 66.9591 58.0387C65.0055 58.111 63.1146 57.7098 61.7232 56.8971C61.7231 56.8971 61.7231 56.8971 61.7231 56.8971L31.1663 39.0451L31.166 39.0449C29.7832 38.2375 29.2983 37.2801 29.2851 36.5008C29.2717 35.7117 29.7345 34.6982 31.1071 33.7765L31.1169 33.7699L31.1267 33.7631L61.0161 12.8561C62.3895 11.9371 64.2689 11.3993 66.2172 11.3275C68.1704 11.2555 70.061 11.6566 71.452 12.4683C71.4526 12.4686 71.4532 12.469 71.4538 12.4694L102.55 30.7937Z" fill="white" stroke="#38D989" stroke-width="2.5"/>
<path d="M69.0662 30.387L75.5265 26.0295C74.5699 25.57 73.5536 25.2832 72.5164 25.1811C71.275 25.0181 70.0206 25.3121 68.9425 26.0183C68.4656 26.3163 68.0643 26.7445 67.7766 27.2627C67.5378 27.8082 67.5802 28.4549 67.8866 28.9562C68.1959 29.5105 68.5958 29.9957 69.0662 30.3838V30.387ZM65.4534 38.407C66.3258 38.3275 67.171 38.0254 67.924 37.5249C68.7245 37.1048 69.2633 36.2387 69.3359 35.2538C69.2518 34.3821 68.8252 33.5972 68.1722 33.112L61.2321 37.7932C61.7039 37.9828 62.1873 38.1323 62.6785 38.2399C63.5905 38.4496 64.5263 38.5066 65.4534 38.411V38.407ZM73.0544 35.2514C73.2192 36.6332 72.4402 37.9057 70.7183 39.0674C69.738 39.727 68.6641 40.1969 67.5443 40.4572C66.4057 40.7255 65.2412 40.826 64.0796 40.7561C62.9375 40.6894 61.8025 40.4894 60.697 40.16C60.0461 39.9672 59.4074 39.727 58.7845 39.4418L57.1058 40.5713C56.8576 40.7328 56.5778 40.8228 56.2901 40.8332C55.9952 40.8533 55.7011 40.785 55.4378 40.6356C55.2407 40.5528 55.1019 40.3552 55.0775 40.1222C55.0947 39.886 55.2264 39.6796 55.4198 39.584L57.0604 38.4777C56.2851 37.9796 55.5694 37.3755 54.9293 36.679C54.2805 36.0154 53.8152 35.1582 53.5857 34.2102C53.4052 33.3811 53.567 32.5055 54.0274 31.8234C54.2762 31.4466 54.6502 31.2 55.0652 31.1373C55.5702 31.0329 56.0902 31.0779 56.5742 31.2683C56.6778 31.3044 56.7785 31.3502 56.8749 31.4065C57.0684 31.5085 57.2259 31.6796 57.323 31.8925C57.446 32.1785 57.4143 32.5183 57.241 32.7706C56.8957 33.3908 56.995 34.1186 57.538 34.9525C58.0703 35.7206 58.7334 36.3616 59.4886 36.8413L66.743 31.9487C65.9029 31.3173 65.1873 30.5003 64.6414 29.5475C64.1587 28.7361 64.0322 27.7246 64.2968 26.7959C64.686 25.7676 65.3865 24.9249 66.2755 24.4155C67.4587 23.6339 68.7821 23.155 70.1515 23.0161C71.6368 22.8522 73.135 22.9389 74.5972 23.2747C75.7279 23.5254 76.8312 23.9126 77.8864 24.4308L79.1731 23.5632C79.4277 23.3945 79.719 23.3053 80.0146 23.3029C80.3002 23.2908 80.5836 23.3599 80.8382 23.5037C81.0892 23.6507 81.2215 23.8202 81.2251 24.0122C81.2287 24.2051 81.1014 24.3842 80.8562 24.5505L79.5766 25.4125C80.1995 25.8126 80.7619 26.3179 81.2438 26.9116C81.7164 27.4764 82.012 28.197 82.0875 28.965C82.1271 29.6993 82.0005 30.432 81.7193 31.0956C81.5682 31.4948 81.2899 31.817 80.9374 31.9993C80.5296 32.2058 80.0801 32.2829 79.6349 32.2251C79.3465 32.2146 79.0624 32.1367 78.802 31.9953C78.6847 31.9278 78.579 31.8395 78.4884 31.7326C78.2496 31.4916 78.1813 31.1044 78.3194 30.7798C78.6632 30.1219 78.7243 29.3265 78.4877 28.6115C78.2057 27.9471 77.7504 27.3936 77.1808 27.0241L70.5033 31.527C72.0482 32.7352 72.8991 33.9764 73.0544 35.2514Z" fill="#38D989"/>
<path d="M31.5385 98.8704C31.3385 98.8704 31.1585 98.8837 30.9985 98.9104C30.8519 98.937 30.6852 98.997 30.4985 99.0904C30.3252 99.1704 30.1919 99.317 30.0985 99.5304C30.0052 99.7437 29.9585 100.01 29.9585 100.33V101.73H32.3985V103.55H29.9585V111.05H27.7785V103.55H25.8785V101.73H27.7785V100.37C27.7785 99.6637 27.8919 99.0704 28.1185 98.5904C28.3452 98.097 28.6385 97.7437 28.9985 97.5304C29.3719 97.3037 29.7119 97.1504 30.0185 97.0704C30.3252 96.977 30.6319 96.9304 30.9385 96.9304C31.5519 96.9304 32.0385 96.9904 32.3985 97.1104V98.9504C32.3319 98.9504 32.1985 98.937 31.9985 98.9104C31.8119 98.8837 31.6585 98.8704 31.5385 98.8704ZM37.4651 111.29C36.4118 111.29 35.5718 110.977 34.9451 110.35C34.3184 109.724 34.0051 108.804 34.0051 107.59V101.73H36.1851V107.05C36.1851 107.837 36.3318 108.43 36.6251 108.83C36.9184 109.23 37.4051 109.43 38.0851 109.43C38.8718 109.43 39.4451 109.21 39.8051 108.77C40.1651 108.317 40.3451 107.724 40.3451 106.99V101.73H42.5251V111.05H40.3451V109.75C39.7718 110.777 38.8118 111.29 37.4651 111.29ZM48.576 111.29C47.4027 111.29 46.4494 110.99 45.716 110.39C44.9827 109.79 44.616 109.057 44.616 108.19H46.796C46.796 108.59 46.9694 108.917 47.316 109.17C47.676 109.424 48.136 109.55 48.696 109.55C49.1094 109.55 49.436 109.45 49.676 109.25C49.916 109.05 50.036 108.784 50.036 108.45C50.036 107.917 49.8027 107.59 49.336 107.47L46.936 106.81C45.5894 106.437 44.916 105.577 44.916 104.23C44.916 103.457 45.2494 102.81 45.916 102.29C46.5827 101.757 47.4427 101.49 48.496 101.49C49.6827 101.49 50.5894 101.757 51.216 102.29C51.856 102.824 52.176 103.524 52.176 104.39H50.036C50.036 104.004 49.8894 103.704 49.596 103.49C49.316 103.264 48.9227 103.15 48.416 103.15C48.0294 103.15 47.7094 103.244 47.456 103.43C47.2027 103.604 47.076 103.83 47.076 104.11C47.076 104.617 47.3427 104.95 47.876 105.11L50.096 105.75C50.736 105.937 51.256 106.257 51.656 106.71C52.056 107.15 52.256 107.664 52.256 108.25C52.256 109.157 51.9294 109.89 51.276 110.45C50.636 111.01 49.736 111.29 48.576 111.29ZM62.8967 105.91C62.8967 106.15 62.8767 106.55 62.8367 107.11H55.9167C55.9433 107.844 56.1833 108.41 56.6367 108.81C57.09 109.197 57.7167 109.39 58.5167 109.39C59.5433 109.39 60.2367 109.037 60.5967 108.33H62.7967C62.65 109.197 62.1767 109.91 61.3767 110.47C60.59 111.017 59.6367 111.29 58.5167 111.29C57.05 111.29 55.89 110.85 55.0367 109.97C54.1833 109.09 53.7567 107.897 53.7567 106.39C53.7567 104.897 54.1767 103.71 55.0167 102.83C55.87 101.937 57.01 101.49 58.4367 101.49C59.77 101.49 60.8433 101.904 61.6567 102.73C62.4833 103.544 62.8967 104.604 62.8967 105.91ZM55.9167 105.45H60.7567C60.7433 104.73 60.53 104.177 60.1167 103.79C59.7167 103.404 59.1433 103.21 58.3967 103.21C57.6367 103.21 57.0367 103.417 56.5967 103.83C56.1567 104.244 55.93 104.784 55.9167 105.45ZM73.9435 111.29C72.5169 111.29 71.3835 110.844 70.5435 109.95C69.7169 109.044 69.3035 107.857 69.3035 106.39C69.3035 104.924 69.7169 103.744 70.5435 102.85C71.3835 101.944 72.5169 101.49 73.9435 101.49C75.2235 101.49 76.2502 101.817 77.0235 102.47C77.8102 103.11 78.2569 103.97 78.3635 105.05H76.1835C75.9435 103.97 75.1969 103.43 73.9435 103.43C73.1702 103.43 72.5635 103.69 72.1235 104.21C71.6969 104.717 71.4835 105.444 71.4835 106.39C71.4835 107.337 71.6969 108.07 72.1235 108.59C72.5635 109.097 73.1702 109.35 73.9435 109.35C75.1835 109.35 75.9302 108.844 76.1835 107.83H78.3635C78.2569 108.884 77.8102 109.724 77.0235 110.35C76.2502 110.977 75.2235 111.29 73.9435 111.29ZM84.5476 111.29C83.0943 111.29 81.9676 110.83 81.1676 109.91C80.3676 108.99 79.9676 107.817 79.9676 106.39C79.9676 104.977 80.3876 103.81 81.2276 102.89C82.0676 101.957 83.1943 101.49 84.6076 101.49C85.2343 101.49 85.8076 101.624 86.3276 101.89C86.8476 102.157 87.2476 102.524 87.5276 102.99V101.73H89.7076V111.05H87.5276V109.79C87.2609 110.244 86.8409 110.61 86.2676 110.89C85.7076 111.157 85.1343 111.29 84.5476 111.29ZM84.8676 109.35C85.7609 109.35 86.4409 109.07 86.9076 108.51C87.3876 107.95 87.6276 107.244 87.6276 106.39C87.6276 105.537 87.3876 104.83 86.9076 104.27C86.4409 103.71 85.7609 103.43 84.8676 103.43C84.0276 103.43 83.3609 103.71 82.8676 104.27C82.3876 104.817 82.1476 105.524 82.1476 106.39C82.1476 107.257 82.3876 107.97 82.8676 108.53C83.3609 109.077 84.0276 109.35 84.8676 109.35ZM95.7635 111.29C94.5902 111.29 93.6369 110.99 92.9035 110.39C92.1702 109.79 91.8035 109.057 91.8035 108.19H93.9835C93.9835 108.59 94.1569 108.917 94.5035 109.17C94.8635 109.424 95.3235 109.55 95.8835 109.55C96.2969 109.55 96.6235 109.45 96.8635 109.25C97.1035 109.05 97.2235 108.784 97.2235 108.45C97.2235 107.917 96.9902 107.59 96.5235 107.47L94.1235 106.81C92.7769 106.437 92.1035 105.577 92.1035 104.23C92.1035 103.457 92.4369 102.81 93.1035 102.29C93.7702 101.757 94.6302 101.49 95.6835 101.49C96.8702 101.49 97.7769 101.757 98.4035 102.29C99.0435 102.824 99.3635 103.524 99.3635 104.39H97.2235C97.2235 104.004 97.0769 103.704 96.7835 103.49C96.5035 103.264 96.1102 103.15 95.6035 103.15C95.2169 103.15 94.8969 103.244 94.6435 103.43C94.3902 103.604 94.2635 103.83 94.2635 104.11C94.2635 104.617 94.5302 104.95 95.0635 105.11L97.2835 105.75C97.9235 105.937 98.4435 106.257 98.8435 106.71C99.2435 107.15 99.4435 107.664 99.4435 108.25C99.4435 109.157 99.1169 109.89 98.4635 110.45C97.8235 111.01 96.9235 111.29 95.7635 111.29ZM106.864 101.49C109.131 101.49 110.264 102.724 110.264 105.19V111.05H108.084V106.19C108.084 105.177 107.931 104.45 107.624 104.01C107.317 103.57 106.791 103.35 106.044 103.35C105.337 103.35 104.791 103.577 104.404 104.03C104.017 104.47 103.824 105.104 103.824 105.93V111.05H101.644V97.0504H103.824V103.03C104.424 102.004 105.437 101.49 106.864 101.49Z" fill="white"/>
</g>
<defs>
<clipPath id="clip0">
<rect width="135" height="113" fill="white"/>
</clipPath>
</defs>
</svg>
